General

Format                           : MPEG-4
Format profile                   : Base Media
Codec ID                         : isom
File size                        : 76.8 MiB
Duration                         : 4mn 53s
Overall bit rate                 : 2 195 Kbps
Encoded date                     : UTC 2012-06-18 03:18:07
Tagged date                      : UTC 2012-06-18 03:18:07

Video
ID                               : 1
Format                           : AVC
Format/Info                      : Advanced Video Codec
Format profile                   : High@L3.0
Format settings, CABAC           : Yes
Format settings, ReFrames        : 2 frames
Codec ID                         : avc1
Codec ID/Info                    : Advanced Video Coding
Duration                         : 4mn 53s
Bit rate mode                    : Variable
Bit rate                         : 2 215 Kbps
Maximum bit rate                 : 14.1 Mbps
Width                            : 720 pixels
Height                           : 480 pixels
Display aspect ratio             : 16:9
Original display aspect ratio    : 16:9
Frame rate mode                  : Constant
Frame rate                       : 29.970 fps
Standard                         : NTSC
Color space                      : YUV
Chroma subsampling               : 4:2:0
Bit depth                        : 8 bits
Scan type                        : Progressive
Bits/(Pixel*Frame)               : 0.214
Stream size                      : 74.1 MiB (97%)


Audio
ID                               : 2
Format                           : AAC
Format/Info                      : Advanced Audio Codec
Format profile                   : LC
Codec ID                         : 40
Duration                         : 4mn 53s
Bit rate mode                    : Variable
Bit rate                         : 68.2 Kbps
Maximum bit rate                 : 78.5 Kbps
Channel(s)                       : 2 channels
Channel positions                : Front: L R
Sampling rate                    : 44.1 KHz
Compression mode                 : Lossy
Stream size                      : 2.39 MiB (3%)